<svg width="64" height="64" viewBox="0 0 64 64" fill="none" xmlns="http://www.w3.org/2000/svg">
<path opacity="0.3" d="M0 14.7693C0 14.7693 9.84614 2.46167 32 2.46167C54.1538 2.46167 63.9999 14.7693 63.9999 14.7693V49.2308C63.9999 49.2308 54.1538 61.5385 32 61.5385C9.84614 61.5385 0 49.2308 0 49.2308V14.7693Z" fill="white"/>
<path opacity="0.7" fill-rule="evenodd" clip-rule="evenodd" d="M61.5384 51.6924C60.179 51.6924 59.0769 50.5903 59.0769 49.2308L59.0769 14.7693C59.0769 13.4099 60.179 12.3078 61.5384 12.3078C62.8979 12.3078 64 13.4099 64 14.7693L64 49.2308C64 50.5903 62.8979 51.6924 61.5384 51.6924Z" fill="url(#paint0_linear)"/>
<path opacity="0.7" fill-rule="evenodd" clip-rule="evenodd" d="M2.46154 12.3083C1.10207 12.3083 -3.3549e-08 13.4104 -7.49337e-08 14.7699L-1.12401e-06 49.2314C-1.16539e-06 50.5909 1.10207 51.6929 2.46153 51.6929C3.821 51.6929 4.92307 50.5909 4.92307 49.2314L4.92307 14.7699C4.92307 13.4104 3.821 12.3083 2.46154 12.3083Z" fill="url(#paint1_linear)"/>
<path fill-rule="evenodd" clip-rule="evenodd" d="M6.51113 11.7321C5.32298 12.9025 4.92393 13.9274 4.92393 14.7692C4.92393 15.6111 5.32298 16.6359 6.51113 17.8063C7.70796 18.9853 9.56607 20.1604 12.0607 21.1999C17.0393 23.2743 24.0878 24.6154 32.0008 24.6154C39.9139 24.6154 46.9623 23.2743 51.9409 21.1999C54.4356 20.1604 56.2937 18.9853 57.4905 17.8063C58.6787 16.6359 59.0777 15.6111 59.0777 14.7692C59.0777 13.9274 58.6787 12.9025 57.4905 11.7321C56.2937 10.5531 54.4356 9.378 51.9409 8.33856C46.9623 6.26415 39.9139 4.92307 32.0008 4.92307C24.0878 4.92307 17.0393 6.26415 12.0607 8.33856C9.56607 9.378 7.70796 10.5531 6.51113 11.7321ZM10.1673 3.79418C15.8795 1.41409 23.6002 0 32.0008 0C40.4014 0 48.1222 1.41409 53.8344 3.79418C56.6851 4.98199 59.1528 6.459 60.9454 8.22494C62.7467 9.99941 64.0008 12.2124 64.0008 14.7692C64.0008 17.326 62.7467 19.539 60.9454 21.3135C59.1528 23.0794 56.6851 24.5564 53.8344 25.7442C48.1222 28.1243 40.4014 29.5384 32.0008 29.5384C23.6002 29.5384 15.8795 28.1243 10.1673 25.7442C7.31651 24.5564 4.84883 23.0794 3.0562 21.3135C1.25491 19.539 0.000854492 17.326 0.000854492 14.7692C0.000854492 12.2124 1.25491 9.99941 3.0562 8.22494C4.84883 6.459 7.31651 4.98199 10.1673 3.79418Z" fill="white"/>
<path fill-rule="evenodd" clip-rule="evenodd" d="M6.51028 46.1933C5.32212 47.3637 4.92307 48.3885 4.92307 49.2304C4.92307 50.0722 5.32212 51.0971 6.51028 52.2675C7.7071 53.4465 9.56522 54.6216 12.0599 55.6611C17.0385 57.7355 24.0869 59.0765 32 59.0765C39.913 59.0765 46.9615 57.7355 51.94 55.6611C54.4347 54.6216 56.2928 53.4465 57.4897 52.2675C58.6778 51.0971 59.0769 50.0722 59.0769 49.2304C59.0769 48.3885 58.6778 47.3637 57.4897 46.1933C56.2928 45.0143 54.4347 43.8392 51.94 42.7997C46.9615 40.7253 39.913 39.3843 32 39.3843C24.0869 39.3843 17.0385 40.7253 12.0599 42.7997C9.56522 43.8392 7.7071 45.0143 6.51028 46.1933ZM10.1664 38.2554C15.8786 35.8753 23.5994 34.4612 32 34.4612C40.4005 34.4612 48.1213 35.8753 53.8335 38.2554C56.6843 39.4432 59.152 40.9202 60.9446 42.6861C62.7459 44.4606 63.9999 46.6736 63.9999 49.2304C63.9999 51.7872 62.7459 54.0002 60.9446 55.7747C59.152 57.5406 56.6843 59.0176 53.8335 60.2054C48.1213 62.5855 40.4005 63.9996 32 63.9996C23.5994 63.9996 15.8786 62.5855 10.1664 60.2054C7.31566 59.0176 4.84797 57.5406 3.05535 55.7747C1.25405 54.0002 0 51.7872 0 49.2304C0 46.6736 1.25405 44.4606 3.05535 42.6861C4.84797 40.9202 7.31566 39.4432 10.1664 38.2554Z" fill="white"/>
<defs>
<linearGradient id="paint0_linear" x1="61.5384" y1="14.7694" x2="61.5384" y2="49.2308" gradientUnits="userSpaceOnUse">
<stop stop-color="white"/>
<stop offset="1" stop-color="white" stop-opacity="0"/>
</linearGradient>
<linearGradient id="paint1_linear" x1="2.46153" y1="49.2314" x2="2.46153" y2="14.7699" gradientUnits="userSpaceOnUse">
<stop stop-color="white"/>
<stop offset="1" stop-color="white" stop-opacity="0"/>
</linearGradient>
</defs>
</svg>
