<svg width="520" height="479" viewBox="0 0 540 499" fill="none" xmlns="http://www.w3.org/2000/svg" style="background-color:#06163E;padding: 10px">
<path d="M56.4894 311C61.5106 311 65.3511 309.663 68.0106 306.99C70.6702 304.316 72 300.436 72 295.348V198.588C72 193.543 70.6702 189.684 68.0106 187.01C65.3511 184.337 61.5106 183 56.4894 183H15.5745C10.5106 183 6.64894 184.337 3.98936 187.01C1.32979 189.684 0 193.543 0 198.588V295.348C0 300.436 1.32979 304.316 3.98936 306.99C6.64894 309.663 10.5106 311 15.5745 311H56.4894ZM56.0426 306.278H15.9574C12.0851 306.278 9.24468 305.373 7.43617 303.562C5.62766 301.751 4.7234 298.905 4.7234 295.024V198.976C4.7234 195.095 5.62766 192.249 7.43617 190.438C9.24468 188.627 12.0851 187.722 15.9574 187.722H18L53.9998 187.724L56.0426 187.722C59.9149 187.722 62.7553 188.627 64.5638 190.438C66.3723 192.249 67.2766 195.095 67.2766 198.976V295.024C67.2766 298.905 66.3723 301.751 64.5638 303.562C62.7553 305.373 59.9149 306.278 56.0426 306.278Z" fill="white"/>
<path d="M12.8156 173.824C12.5116 172.808 11.7676 172.168 10.7276 172.168C9.36763 172.168 8.39163 173.384 8.39163 175.128C8.39163 176.872 9.36763 178.088 10.7276 178.088C11.7676 178.088 12.5116 177.448 12.8156 176.432L11.8636 176.104C11.7036 176.776 11.2876 177.184 10.7196 177.184C9.95163 177.184 9.37563 176.368 9.37563 175.128C9.37563 173.888 9.95163 173.072 10.7196 173.072C11.2876 173.072 11.7036 173.48 11.8636 174.152L12.8156 173.824ZM15.9725 178.088C17.2765 178.088 18.1165 176.872 18.1165 175.128C18.1165 173.384 17.2765 172.168 15.9725 172.168C14.6685 172.168 13.8285 173.384 13.8285 175.128C13.8285 176.872 14.6685 178.088 15.9725 178.088ZM15.9725 173.072C16.7245 173.072 17.1245 173.88 17.1245 175.128C17.1245 176.376 16.7245 177.184 15.9725 177.184C15.2205 177.184 14.8205 176.376 14.8205 175.128C14.8205 173.88 15.2205 173.072 15.9725 173.072ZM23.3294 172.256H22.3694V176.12L20.5134 172.256H19.4894V178H20.4494V173.944L22.3614 178H23.3294V172.256ZM29.0463 173.152V172.256H24.6463V173.152H26.3343V178H27.3583V173.152H29.0463ZM31.3871 175.776H32.1151L33.5151 178H34.6831L33.1791 175.672C33.9631 175.448 34.4191 174.88 34.4191 174.016C34.4191 172.856 33.6191 172.256 32.3391 172.256H30.3631V178H31.3871V175.776ZM31.3871 174.896V173.136H32.2831C33.0191 173.136 33.4111 173.448 33.4111 174.016C33.4111 174.576 33.0191 174.896 32.2831 174.896H31.3871ZM37.72 178.088C39.024 178.088 39.864 176.872 39.864 175.128C39.864 173.384 39.024 172.168 37.72 172.168C36.416 172.168 35.576 173.384 35.576 175.128C35.576 176.872 36.416 178.088 37.72 178.088ZM37.72 173.072C38.472 173.072 38.872 173.88 38.872 175.128C38.872 176.376 38.472 177.184 37.72 177.184C36.968 177.184 36.568 176.376 36.568 175.128C36.568 173.88 36.968 173.072 37.72 173.072ZM41.4609 178H45.1889V177.104H42.4849V172.256H41.4609V178ZM46.8977 178H50.6257V177.104H47.9217V172.256H46.8977V178ZM52.1106 172.256V178H56.0786V177.104H53.1186V175.488H55.6226V174.592H53.1186V173.152H56.0786V172.256H52.1106ZM58.5715 175.776H59.2995L60.6995 178H61.8675L60.3635 175.672C61.1475 175.448 61.6035 174.88 61.6035 174.016C61.6035 172.856 60.8035 172.256 59.5235 172.256H57.5475V178H58.5715V175.776ZM58.5715 174.896V173.136H59.4675C60.2035 173.136 60.5955 173.448 60.5955 174.016C60.5955 174.576 60.2035 174.896 59.4675 174.896H58.5715Z" fill="#CED6E0"/>
<rect x="8" y="191" width="56" height="97" rx="6" fill="#445B78"/>
<path d="M43.4993 243.256C43.4987 243.256 43.4982 243.255 43.4976 243.254C43.524 243.165 43.5512 243.077 43.5743 242.985C44.5638 239.069 42.1487 234.438 38.0617 232C39.8527 234.412 40.6446 237.333 39.941 239.888C39.8783 240.116 39.8028 240.335 39.7195 240.547C39.629 240.488 39.515 240.421 39.3618 240.337C39.3618 240.337 35.2964 237.844 30.8901 233.433C30.7745 233.317 33.2397 236.933 36.0375 239.87C34.7193 239.135 31.0459 236.48 28.7204 234.365C29.0061 234.839 29.3459 235.295 29.7195 235.733C31.6615 238.18 34.1941 241.199 37.2283 243.517C35.0965 244.813 32.0841 244.914 29.0848 243.518C28.343 243.173 27.6456 242.756 27 242.283C28.2696 244.3 30.2249 246.04 32.6048 247.057C35.4428 248.268 38.2651 248.186 40.3671 247.076L40.3654 247.079C40.375 247.073 40.3872 247.066 40.3972 247.06C40.4835 247.014 40.5692 246.967 40.6529 246.917C41.6629 246.397 43.6577 245.868 44.7284 247.938C44.9906 248.444 45.5478 245.76 43.4993 243.256Z" fill="white"/>
<circle opacity="0.5" cx="16" cy="296" r="4" fill="white"/>
<circle opacity="0.5" cx="36" cy="296" r="4" fill="white"/>
<circle opacity="0.5" cx="56" cy="296" r="4" fill="white"/>
<path d="M76 246C75.4477 246 75 246.448 75 247C75 247.552 75.4477 248 76 248V246ZM188.707 247.707C189.098 247.317 189.098 246.683 188.707 246.293L182.343 239.929C181.953 239.538 181.319 239.538 180.929 239.929C180.538 240.319 180.538 240.953 180.929 241.343L186.586 247L180.929 252.657C180.538 253.047 180.538 253.681 180.929 254.071C181.319 254.462 181.953 254.462 182.343 254.071L188.707 247.707ZM76 248H188V246H76V248Z" fill="#B5BBC9"/>
<path d="M268 246C267.448 246 267 246.448 267 247C267 247.552 267.448 248 268 248L268 246ZM316.707 247.707C317.098 247.317 317.098 246.683 316.707 246.293L310.343 239.929C309.953 239.538 309.319 239.538 308.929 239.929C308.538 240.319 308.538 240.953 308.929 241.343L314.586 247L308.929 252.657C308.538 253.047 308.538 253.681 308.929 254.071C309.319 254.462 309.953 254.462 310.343 254.071L316.707 247.707ZM268 248L316 248L316 246L268 246L268 248Z" fill="#B5BBC9"/>
<path d="M268 78C267.448 78 267 78.4477 267 79C267 79.5523 267.448 80 268 80L268 78ZM316.707 79.7071C317.098 79.3166 317.098 78.6834 316.707 78.2929L310.343 71.9289C309.953 71.5384 309.319 71.5384 308.929 71.9289C308.538 72.3195 308.538 72.9526 308.929 73.3431L314.586 79L308.929 84.6569C308.538 85.0474 308.538 85.6805 308.929 86.0711C309.319 86.4616 309.953 86.4616 310.343 86.0711L316.707 79.7071ZM268 80L316 80L316 78L268 78L268 80Z" fill="#B5BBC9"/>
<path d="M396 78C395.448 78 395 78.4477 395 79C395 79.5523 395.448 80 396 80L396 78ZM444.707 79.7071C445.098 79.3166 445.098 78.6834 444.707 78.2929L438.343 71.9289C437.953 71.5384 437.319 71.5384 436.929 71.9289C436.538 72.3195 436.538 72.9526 436.929 73.3431L442.586 79L436.929 84.6569C436.538 85.0474 436.538 85.6805 436.929 86.0711C437.319 86.4616 437.953 86.4616 438.343 86.0711L444.707 79.7071ZM396 80L444 80L444 78L396 78L396 80Z" fill="#B5BBC9"/>
<path d="M97.0439 246.707C96.882 247.235 97.1789 247.794 97.7069 247.956C98.2349 248.118 98.7942 247.821 98.9561 247.293L97.0439 246.707ZM188.707 79.7071C189.098 79.3166 189.098 78.6834 188.707 78.2929L182.343 71.9289C181.953 71.5384 181.319 71.5384 180.929 71.9289C180.538 72.3195 180.538 72.9526 180.929 73.3431L186.586 79L180.929 84.6569C180.538 85.0474 180.538 85.6805 180.929 86.0711C181.319 86.4616 181.953 86.4616 182.343 86.0711L188.707 79.7071ZM98.9561 247.293L148.289 86.3622L146.377 85.7761L97.0439 246.707L98.9561 247.293ZM156.894 80H188V78H156.894V80ZM148.289 86.3622C149.448 82.5814 152.939 80 156.894 80V78C152.061 78 147.793 81.155 146.377 85.7761L148.289 86.3622Z" fill="#B5BBC9"/>
<path d="M97.0447 247.296C96.8814 246.768 97.1767 246.208 97.7043 246.045C98.2319 245.881 98.792 246.177 98.9553 246.704L97.0447 247.296ZM188.707 414.293C189.098 414.683 189.098 415.317 188.707 415.707L182.343 422.071C181.953 422.462 181.319 422.462 180.929 422.071C180.538 421.681 180.538 421.047 180.929 420.657L186.586 415L180.929 409.343C180.538 408.953 180.538 408.319 180.929 407.929C181.319 407.538 181.953 407.538 182.343 407.929L188.707 414.293ZM98.9553 246.704L148.775 407.661L146.865 408.253L97.0447 247.296L98.9553 246.704ZM157.373 414H188V416H157.373V414ZM148.775 407.661C149.942 411.43 153.427 414 157.373 414V416C152.551 416 148.291 412.859 146.865 408.253L148.775 407.661Z" fill="#B5BBC9"/>
<path d="M248.489 311C253.511 311 257.351 309.663 260.011 306.99C262.67 304.316 264 300.436 264 295.348V198.588C264 193.543 262.67 189.684 260.011 187.01C257.351 184.337 253.511 183 248.489 183H207.574C202.511 183 198.649 184.337 195.989 187.01C193.33 189.684 192 193.543 192 198.588V295.348C192 300.436 193.33 304.316 195.989 306.99C198.649 309.663 202.511 311 207.574 311H248.489ZM248.043 306.278H207.957C204.085 306.278 201.245 305.373 199.436 303.562C197.628 301.751 196.723 298.905 196.723 295.024V198.976C196.723 195.095 197.628 192.249 199.436 190.438C201.245 188.627 204.085 187.722 207.957 187.722H210L246 187.724L248.043 187.722C251.915 187.722 254.755 188.627 256.564 190.438C258.372 192.249 259.277 195.095 259.277 198.976V295.024C259.277 298.905 258.372 301.751 256.564 303.562C254.755 305.373 251.915 306.278 248.043 306.278Z" fill="white"/>
<path d="M211.753 173.824C211.449 172.808 210.705 172.168 209.665 172.168C208.305 172.168 207.329 173.384 207.329 175.128C207.329 176.872 208.305 178.088 209.665 178.088C210.705 178.088 211.449 177.448 211.753 176.432L210.801 176.104C210.641 176.776 210.225 177.184 209.657 177.184C208.889 177.184 208.313 176.368 208.313 175.128C208.313 173.888 208.889 173.072 209.657 173.072C210.225 173.072 210.641 173.48 210.801 174.152L211.753 173.824ZM214.293 172.256L212.637 178H213.637L214.005 176.688H215.789L216.157 178H217.189L215.517 172.256H214.293ZM214.893 173.48L215.541 175.792H214.253L214.893 173.48ZM219.45 175.776H220.178L221.578 178H222.746L221.242 175.672C222.026 175.448 222.482 174.88 222.482 174.016C222.482 172.856 221.682 172.256 220.402 172.256H218.426V178H219.45V175.776ZM219.45 174.896V173.136H220.346C221.082 173.136 221.474 173.448 221.474 174.016C221.474 174.576 221.082 174.896 220.346 174.896H219.45ZM227.983 173.152V172.256H223.583V173.152H225.271V178H226.295V173.152H227.983ZM238.857 173.152V172.256H234.457V173.152H236.145V178H237.169V173.152H238.857ZM241.478 172.256L239.822 178H240.822L241.19 176.688H242.974L243.342 178H244.374L242.702 172.256H241.478ZM242.078 173.48L242.726 175.792H241.438L242.078 173.48ZM245.611 178H247.755C248.939 178 249.683 177.408 249.683 176.4C249.683 175.696 249.283 175.2 248.683 175.008C249.083 174.848 249.499 174.48 249.499 173.768C249.499 172.792 248.843 172.256 247.611 172.256H245.611V178ZM246.595 174.632V173.12H247.515C248.171 173.12 248.531 173.368 248.531 173.872C248.531 174.376 248.171 174.632 247.515 174.632H246.595ZM246.595 175.496H247.699C248.347 175.496 248.699 175.832 248.699 176.312C248.699 176.8 248.347 177.136 247.699 177.136H246.595V175.496Z" fill="#CED6E0"/>
<rect x="200" y="191" width="56" height="97" rx="6" fill="#445B78"/>
<path d="M235.499 243.256C235.499 243.256 235.498 243.255 235.498 243.254C235.524 243.165 235.551 243.077 235.574 242.985C236.564 239.069 234.149 234.438 230.062 232C231.853 234.412 232.645 237.333 231.941 239.888C231.878 240.116 231.803 240.335 231.719 240.547C231.629 240.488 231.515 240.421 231.362 240.337C231.362 240.337 227.296 237.844 222.89 233.433C222.774 233.317 225.24 236.933 228.037 239.87C226.719 239.135 223.046 236.48 220.72 234.365C221.006 234.839 221.346 235.295 221.719 235.733C223.661 238.18 226.194 241.199 229.228 243.517C227.096 244.813 224.084 244.914 221.085 243.518C220.343 243.173 219.646 242.756 219 242.283C220.27 244.3 222.225 246.04 224.605 247.057C227.443 248.268 230.265 248.186 232.367 247.076L232.365 247.079C232.375 247.073 232.387 247.066 232.397 247.06C232.483 247.014 232.569 246.967 232.653 246.917C233.663 246.397 235.658 245.868 236.728 247.938C236.991 248.444 237.548 245.76 235.499 243.256Z" fill="white"/>
<circle opacity="0.5" cx="208" cy="296" r="4" fill="white"/>
<circle cx="228" cy="296" r="4" fill="white"/>
<circle opacity="0.5" cx="248" cy="296" r="4" fill="white"/>
<path d="M248.489 479C253.511 479 257.351 477.663 260.011 474.99C262.67 472.316 264 468.436 264 463.348V366.588C264 361.543 262.67 357.684 260.011 355.01C257.351 352.337 253.511 351 248.489 351H207.574C202.511 351 198.649 352.337 195.989 355.01C193.33 357.684 192 361.543 192 366.588V463.348C192 468.436 193.33 472.316 195.989 474.99C198.649 477.663 202.511 479 207.574 479H248.489ZM248.043 474.278H207.957C204.085 474.278 201.245 473.373 199.436 471.562C197.628 469.751 196.723 466.905 196.723 463.024V366.976C196.723 363.095 197.628 360.249 199.436 358.438C201.245 356.627 204.085 355.722 207.957 355.722H210L246 355.724L248.043 355.722C251.915 355.722 254.755 356.627 256.564 358.438C258.372 360.249 259.277 363.095 259.277 366.976V463.024C259.277 466.905 258.372 469.751 256.564 471.562C254.755 473.373 251.915 474.278 248.043 474.278Z" fill="white"/>
<path d="M198.921 343.776H200.017C201.297 343.776 202.097 343.16 202.097 342.016C202.097 340.856 201.297 340.256 200.017 340.256H197.897V346H198.921V343.776ZM198.921 342.896V341.136H199.961C200.697 341.136 201.089 341.448 201.089 342.016C201.089 342.576 200.697 342.896 199.961 342.896H198.921ZM204.358 343.776H205.086L206.486 346H207.654L206.15 343.672C206.934 343.448 207.39 342.88 207.39 342.016C207.39 340.856 206.59 340.256 205.31 340.256H203.334V346H204.358V343.776ZM204.358 342.896V341.136H205.254C205.99 341.136 206.382 341.448 206.382 342.016C206.382 342.576 205.99 342.896 205.254 342.896H204.358ZM210.691 346.088C211.995 346.088 212.835 344.872 212.835 343.128C212.835 341.384 211.995 340.168 210.691 340.168C209.387 340.168 208.547 341.384 208.547 343.128C208.547 344.872 209.387 346.088 210.691 346.088ZM210.691 341.072C211.443 341.072 211.843 341.88 211.843 343.128C211.843 344.376 211.443 345.184 210.691 345.184C209.939 345.184 209.539 344.376 209.539 343.128C209.539 341.88 209.939 341.072 210.691 341.072ZM215.376 346V343.608H217.744V342.712H215.376V341.152H218.2V340.256H214.368V346H215.376ZM223.605 345.104H222.077V341.152H223.605V340.256H219.525V341.152H221.053V345.104H219.525V346H223.605V345.104ZM225.306 346H229.034V345.104H226.33V340.256H225.306V346ZM230.518 340.256V346H234.486V345.104H231.526V343.488H234.03V342.592H231.526V341.152H234.486V340.256H230.518ZM245.512 341.152V340.256H241.112V341.152H242.8V346H243.824V341.152H245.512ZM248.133 340.256L246.477 346H247.477L247.845 344.688H249.629L249.997 346H251.029L249.357 340.256H248.133ZM248.733 341.48L249.381 343.792H248.093L248.733 341.48ZM252.266 346H254.41C255.594 346 256.338 345.408 256.338 344.4C256.338 343.696 255.938 343.2 255.338 343.008C255.738 342.848 256.154 342.48 256.154 341.768C256.154 340.792 255.498 340.256 254.266 340.256H252.266V346ZM253.25 342.632V341.12H254.17C254.826 341.12 255.186 341.368 255.186 341.872C255.186 342.376 254.826 342.632 254.17 342.632H253.25ZM253.25 343.496H254.354C255.002 343.496 255.354 343.832 255.354 344.312C255.354 344.8 255.002 345.136 254.354 345.136H253.25V343.496Z" fill="#CED6E0"/>
<rect x="200" y="359" width="56" height="97" rx="6" fill="#1B6DFF"/>
<path opacity="0.3" d="M219.25 403.289C219.25 403.289 221.942 399.923 228 399.923C234.057 399.923 236.75 403.289 236.75 403.289V412.712C236.75 412.712 234.057 416.077 228 416.077C221.942 416.077 219.25 412.712 219.25 412.712V403.289Z" fill="white"/>
<path opacity="0.7" fill-rule="evenodd" clip-rule="evenodd" d="M236.077 413.385C235.705 413.385 235.404 413.083 235.404 412.711L235.404 403.289C235.404 402.917 235.705 402.615 236.077 402.615C236.448 402.615 236.75 402.917 236.75 403.289L236.75 412.711C236.75 413.083 236.448 413.385 236.077 413.385Z" fill="url(#paint0_linear)"/>
<path opacity="0.7" fill-rule="evenodd" clip-rule="evenodd" d="M219.923 402.616C219.551 402.616 219.25 402.917 219.25 403.289L219.25 412.712C219.25 413.083 219.551 413.385 219.923 413.385C220.295 413.385 220.596 413.083 220.596 412.712L220.596 403.289C220.596 402.917 220.295 402.616 219.923 402.616Z" fill="url(#paint1_linear)"/>
<path fill-rule="evenodd" clip-rule="evenodd" d="M221.03 402.458C220.706 402.778 220.596 403.058 220.596 403.289C220.596 403.519 220.706 403.799 221.03 404.119C221.358 404.441 221.866 404.763 222.548 405.047C223.909 405.614 225.836 405.981 228 405.981C230.164 405.981 232.091 405.614 233.452 405.047C234.135 404.763 234.643 404.441 234.97 404.119C235.295 403.799 235.404 403.519 235.404 403.289C235.404 403.058 235.295 402.778 234.97 402.458C234.643 402.136 234.135 401.814 233.452 401.53C232.091 400.963 230.164 400.596 228 400.596C225.836 400.596 223.909 400.963 222.548 401.53C221.866 401.814 221.358 402.136 221.03 402.458ZM222.03 400.288C223.592 399.637 225.703 399.25 228 399.25C230.297 399.25 232.408 399.637 233.97 400.288C234.75 400.612 235.424 401.016 235.915 401.499C236.407 401.984 236.75 402.59 236.75 403.289C236.75 403.988 236.407 404.593 235.915 405.078C235.424 405.561 234.75 405.965 233.97 406.29C232.408 406.94 230.297 407.327 228 407.327C225.703 407.327 223.592 406.94 222.03 406.29C221.251 405.965 220.576 405.561 220.086 405.078C219.593 404.593 219.25 403.988 219.25 403.289C219.25 402.59 219.593 401.984 220.086 401.499C220.576 401.016 221.251 400.612 222.03 400.288Z" fill="white"/>
<path fill-rule="evenodd" clip-rule="evenodd" d="M221.03 411.881C220.705 412.201 220.596 412.481 220.596 412.711C220.596 412.942 220.705 413.222 221.03 413.542C221.357 413.864 221.866 414.186 222.548 414.47C223.909 415.037 225.836 415.404 228 415.404C230.164 415.404 232.091 415.037 233.452 414.47C234.134 414.186 234.642 413.864 234.97 413.542C235.295 413.222 235.404 412.942 235.404 412.711C235.404 412.481 235.295 412.201 234.97 411.881C234.642 411.559 234.134 411.237 233.452 410.953C232.091 410.386 230.164 410.019 228 410.019C225.836 410.019 223.909 410.386 222.548 410.953C221.866 411.237 221.357 411.559 221.03 411.881ZM222.03 409.711C223.592 409.06 225.703 408.673 228 408.673C230.297 408.673 232.408 409.06 233.97 409.711C234.749 410.035 235.424 410.439 235.914 410.922C236.407 411.407 236.75 412.012 236.75 412.711C236.75 413.411 236.407 414.016 235.914 414.501C235.424 414.984 234.749 415.388 233.97 415.712C232.408 416.363 230.297 416.75 228 416.75C225.703 416.75 223.592 416.363 222.03 415.712C221.25 415.388 220.576 414.984 220.086 414.501C219.593 414.016 219.25 413.411 219.25 412.711C219.25 412.012 219.593 411.407 220.086 410.922C220.576 410.439 221.25 410.035 222.03 409.711Z" fill="white"/>
<circle opacity="0.5" cx="208" cy="464" r="4" fill="white"/>
<circle opacity="0.5" cx="228" cy="464" r="4" fill="white"/>
<circle cx="248" cy="464" r="4" fill="white"/>
<path d="M248.489 143C253.511 143 257.351 141.663 260.011 138.99C262.67 136.316 264 132.436 264 127.348V30.5877C264 25.5427 262.67 21.6835 260.011 19.0101C257.351 16.3367 253.511 15 248.489 15H207.574C202.511 15 198.649 16.3367 195.989 19.0101C193.33 21.6835 192 25.5427 192 30.5877V127.348C192 132.436 193.33 136.316 195.989 138.99C198.649 141.663 202.511 143 207.574 143H248.489ZM248.043 138.278H207.957C204.085 138.278 201.245 137.373 199.436 135.562C197.628 133.751 196.723 130.905 196.723 127.024V30.9757C196.723 27.095 197.628 24.2491 199.436 22.4381C201.245 20.6271 204.085 19.7216 207.957 19.7216H210L246 19.7237L248.043 19.7216C251.915 19.7216 254.755 20.6271 256.564 22.4381C258.372 24.2491 259.277 27.095 259.277 30.9757V127.024C259.277 130.905 258.372 133.751 256.564 135.562C254.755 137.373 251.915 138.278 248.043 138.278Z" fill="white"/>
<path d="M207.081 8.896C207.529 9.632 208.513 10.088 209.497 10.088C210.681 10.088 211.673 9.392 211.673 8.264C211.673 7.016 210.561 6.808 209.633 6.6C208.857 6.424 208.409 6.312 208.409 5.808C208.409 5.336 208.841 5.024 209.457 5.024C210.129 5.024 210.561 5.36 210.881 5.856L211.625 5.216C211.241 4.616 210.473 4.168 209.489 4.168C208.329 4.168 207.417 4.848 207.417 5.912C207.417 7.032 208.345 7.28 209.209 7.488C210.065 7.696 210.665 7.784 210.665 8.368C210.665 8.92 210.177 9.224 209.529 9.224C208.873 9.224 208.273 8.856 207.873 8.232L207.081 8.896ZM215.805 4.256V6.592H214.013V4.256H212.989V10H214.013V7.488H215.805V10H216.829V4.256H215.805ZM220.346 10.088C221.65 10.088 222.49 8.872 222.49 7.128C222.49 5.384 221.65 4.168 220.346 4.168C219.042 4.168 218.202 5.384 218.202 7.128C218.202 8.872 219.042 10.088 220.346 10.088ZM220.346 5.072C221.098 5.072 221.498 5.88 221.498 7.128C221.498 8.376 221.098 9.184 220.346 9.184C219.594 9.184 219.194 8.376 219.194 7.128C219.194 5.88 219.594 5.072 220.346 5.072ZM224.887 7.776H225.983C227.263 7.776 228.063 7.16 228.063 6.016C228.063 4.856 227.263 4.256 225.983 4.256H223.863V10H224.887V7.776ZM224.887 6.896V5.136H225.927C226.663 5.136 227.055 5.448 227.055 6.016C227.055 6.576 226.663 6.896 225.927 6.896H224.887ZM238.857 5.152V4.256H234.457V5.152H236.145V10H237.169V5.152H238.857ZM241.478 4.256L239.822 10H240.822L241.19 8.688H242.974L243.342 10H244.374L242.702 4.256H241.478ZM242.078 5.48L242.726 7.792H241.438L242.078 5.48ZM245.611 10H247.755C248.939 10 249.683 9.408 249.683 8.4C249.683 7.696 249.283 7.2 248.683 7.008C249.083 6.848 249.499 6.48 249.499 5.768C249.499 4.792 248.843 4.256 247.611 4.256H245.611V10ZM246.595 6.632V5.12H247.515C248.171 5.12 248.531 5.368 248.531 5.872C248.531 6.376 248.171 6.632 247.515 6.632H246.595ZM246.595 7.496H247.699C248.347 7.496 248.699 7.832 248.699 8.312C248.699 8.8 248.347 9.136 247.699 9.136H246.595V7.496Z" fill="#CED6E0"/>
<rect x="200" y="23" width="56" height="97" rx="6" fill="#445B78"/>
<path d="M235.499 75.2563C235.499 75.2556 235.498 75.255 235.498 75.2544C235.524 75.1652 235.551 75.0766 235.574 74.9852C236.564 71.0686 234.149 66.4381 230.062 64C231.853 66.4119 232.645 69.3333 231.941 71.8881C231.878 72.116 231.803 72.3347 231.719 72.5473C231.629 72.4882 231.515 72.4212 231.362 72.3373C231.362 72.3373 227.296 69.8437 222.89 65.4331C222.774 65.3174 225.24 68.9334 228.037 71.8698C226.719 71.1349 223.046 68.4798 220.72 66.3654C221.006 66.8387 221.346 67.2945 221.719 67.7333C223.661 70.1799 226.194 73.1987 229.228 75.5167C227.096 76.8127 224.084 76.9135 221.085 75.5181C220.343 75.1727 219.646 74.756 219 74.2825C220.27 76.2999 222.225 78.0404 224.605 79.0565C227.443 80.2681 230.265 80.186 232.367 79.0764L232.365 79.0788C232.375 79.0727 232.387 79.0662 232.397 79.0601C232.483 79.014 232.569 78.967 232.653 78.9174C233.663 78.3967 235.658 77.8684 236.728 79.9379C236.991 80.4444 237.548 77.7603 235.499 75.2563Z" fill="white"/>
<circle cx="208" cy="128" r="4" fill="white"/>
<circle opacity="0.5" cx="228" cy="128" r="4" fill="white"/>
<circle opacity="0.5" cx="248" cy="128" r="4" fill="white"/>
<path d="M376.489 311C381.511 311 385.351 309.663 388.011 306.99C390.67 304.316 392 300.436 392 295.348V198.588C392 193.543 390.67 189.684 388.011 187.01C385.351 184.337 381.511 183 376.489 183H335.574C330.511 183 326.649 184.337 323.989 187.01C321.33 189.684 320 193.543 320 198.588V295.348C320 300.436 321.33 304.316 323.989 306.99C326.649 309.663 330.511 311 335.574 311H376.489ZM376.043 306.278H335.957C332.085 306.278 329.245 305.373 327.436 303.562C325.628 301.751 324.723 298.905 324.723 295.024V198.976C324.723 195.095 325.628 192.249 327.436 190.438C329.245 188.627 332.085 187.722 335.957 187.722H338L374 187.724L376.043 187.722C379.915 187.722 382.755 188.627 384.564 190.438C386.372 192.249 387.277 195.095 387.277 198.976V295.024C387.277 298.905 386.372 301.751 384.564 303.562C382.755 305.373 379.915 306.278 376.043 306.278Z" fill="white"/>
<path d="M339.753 173.824C339.449 172.808 338.705 172.168 337.665 172.168C336.305 172.168 335.329 173.384 335.329 175.128C335.329 176.872 336.305 178.088 337.665 178.088C338.705 178.088 339.449 177.448 339.753 176.432L338.801 176.104C338.641 176.776 338.225 177.184 337.657 177.184C336.889 177.184 336.313 176.368 336.313 175.128C336.313 173.888 336.889 173.072 337.657 173.072C338.225 173.072 338.641 173.48 338.801 174.152L339.753 173.824ZM343.805 172.256V174.592H342.013V172.256H340.989V178H342.013V175.488H343.805V178H344.829V172.256H343.805ZM346.426 172.256V178H350.394V177.104H347.434V175.488H349.938V174.592H347.434V173.152H350.394V172.256H346.426ZM356.063 173.824C355.759 172.808 355.015 172.168 353.975 172.168C352.615 172.168 351.639 173.384 351.639 175.128C351.639 176.872 352.615 178.088 353.975 178.088C355.015 178.088 355.759 177.448 356.063 176.432L355.111 176.104C354.951 176.776 354.535 177.184 353.967 177.184C353.199 177.184 352.623 176.368 352.623 175.128C352.623 173.888 353.199 173.072 353.967 173.072C354.535 173.072 354.951 173.48 355.111 174.152L356.063 173.824ZM358.324 172.256H357.3V178H358.324V175.992L358.772 175.48L360.444 178H361.628L359.46 174.688L361.58 172.256H360.372L358.324 174.688V172.256ZM364.657 178.088C365.961 178.088 366.801 176.872 366.801 175.128C366.801 173.384 365.961 172.168 364.657 172.168C363.353 172.168 362.513 173.384 362.513 175.128C362.513 176.872 363.353 178.088 364.657 178.088ZM364.657 173.072C365.409 173.072 365.809 173.88 365.809 175.128C365.809 176.376 365.409 177.184 364.657 177.184C363.905 177.184 363.505 176.376 363.505 175.128C363.505 173.88 363.905 173.072 364.657 173.072ZM370.094 178.088C371.326 178.088 372.062 177.352 372.062 175.808V172.256H371.038V175.76C371.038 176.752 370.71 177.152 370.094 177.152C369.478 177.152 369.15 176.752 369.15 175.76V172.256H368.126V175.808C368.126 177.352 368.862 178.088 370.094 178.088ZM377.731 173.152V172.256H373.331V173.152H375.019V178H376.043V173.152H377.731Z" fill="#CED6E0"/>
<rect x="328" y="191" width="56" height="112" rx="6" fill="#1B6DFF"/>
<path opacity="0.3" d="M347.25 242.289C347.25 242.289 349.942 238.923 356 238.923C362.057 238.923 364.75 242.289 364.75 242.289V251.712C364.75 251.712 362.057 255.077 356 255.077C349.942 255.077 347.25 251.712 347.25 251.712V242.289Z" fill="white"/>
<path opacity="0.7" fill-rule="evenodd" clip-rule="evenodd" d="M364.077 252.385C363.705 252.385 363.404 252.083 363.404 251.711L363.404 242.289C363.404 241.917 363.705 241.615 364.077 241.615C364.448 241.615 364.75 241.917 364.75 242.289L364.75 251.711C364.75 252.083 364.448 252.385 364.077 252.385Z" fill="url(#paint2_linear)"/>
<path opacity="0.7" fill-rule="evenodd" clip-rule="evenodd" d="M347.923 241.616C347.551 241.616 347.25 241.917 347.25 242.289L347.25 251.712C347.25 252.083 347.551 252.385 347.923 252.385C348.295 252.385 348.596 252.083 348.596 251.712L348.596 242.289C348.596 241.917 348.295 241.616 347.923 241.616Z" fill="url(#paint3_linear)"/>
<path fill-rule="evenodd" clip-rule="evenodd" d="M349.03 241.458C348.706 241.778 348.596 242.058 348.596 242.289C348.596 242.519 348.706 242.799 349.03 243.119C349.358 243.441 349.866 243.763 350.548 244.047C351.909 244.614 353.836 244.981 356 244.981C358.164 244.981 360.091 244.614 361.452 244.047C362.135 243.763 362.643 243.441 362.97 243.119C363.295 242.799 363.404 242.519 363.404 242.289C363.404 242.058 363.295 241.778 362.97 241.458C362.643 241.136 362.135 240.814 361.452 240.53C360.091 239.963 358.164 239.596 356 239.596C353.836 239.596 351.909 239.963 350.548 240.53C349.866 240.814 349.358 241.136 349.03 241.458ZM350.03 239.288C351.592 238.637 353.703 238.25 356 238.25C358.297 238.25 360.408 238.637 361.97 239.288C362.75 239.612 363.424 240.016 363.915 240.499C364.407 240.984 364.75 241.59 364.75 242.289C364.75 242.988 364.407 243.593 363.915 244.078C363.424 244.561 362.75 244.965 361.97 245.29C360.408 245.94 358.297 246.327 356 246.327C353.703 246.327 351.592 245.94 350.03 245.29C349.251 244.965 348.576 244.561 348.086 244.078C347.593 243.593 347.25 242.988 347.25 242.289C347.25 241.59 347.593 240.984 348.086 240.499C348.576 240.016 349.251 239.612 350.03 239.288Z" fill="white"/>
<path fill-rule="evenodd" clip-rule="evenodd" d="M349.03 250.881C348.705 251.201 348.596 251.481 348.596 251.711C348.596 251.942 348.705 252.222 349.03 252.542C349.357 252.864 349.866 253.186 350.548 253.47C351.909 254.037 353.836 254.404 356 254.404C358.164 254.404 360.091 254.037 361.452 253.47C362.134 253.186 362.642 252.864 362.97 252.542C363.295 252.222 363.404 251.942 363.404 251.711C363.404 251.481 363.295 251.201 362.97 250.881C362.642 250.559 362.134 250.237 361.452 249.953C360.091 249.386 358.164 249.019 356 249.019C353.836 249.019 351.909 249.386 350.548 249.953C349.866 250.237 349.357 250.559 349.03 250.881ZM350.03 248.711C351.592 248.06 353.703 247.673 356 247.673C358.297 247.673 360.408 248.06 361.97 248.711C362.749 249.035 363.424 249.439 363.914 249.922C364.407 250.407 364.75 251.012 364.75 251.711C364.75 252.411 364.407 253.016 363.914 253.501C363.424 253.984 362.749 254.388 361.97 254.712C360.408 255.363 358.297 255.75 356 255.75C353.703 255.75 351.592 255.363 350.03 254.712C349.25 254.388 348.576 253.984 348.086 253.501C347.593 253.016 347.25 252.411 347.25 251.711C347.25 251.012 347.593 250.407 348.086 249.922C348.576 249.439 349.25 249.035 350.03 248.711Z" fill="white"/>
<path d="M376.489 143C381.511 143 385.351 141.663 388.011 138.99C390.67 136.316 392 132.436 392 127.348V30.5877C392 25.5427 390.67 21.6835 388.011 19.0101C385.351 16.3367 381.511 15 376.489 15H335.574C330.511 15 326.649 16.3367 323.989 19.0101C321.33 21.6835 320 25.5427 320 30.5877V127.348C320 132.436 321.33 136.316 323.989 138.99C326.649 141.663 330.511 143 335.574 143H376.489ZM376.043 138.278H335.957C332.085 138.278 329.245 137.373 327.436 135.562C325.628 133.751 324.723 130.905 324.723 127.024V30.9757C324.723 27.095 325.628 24.2491 327.436 22.4381C329.245 20.6271 332.085 19.7216 335.957 19.7216H338L374 19.7237L376.043 19.7216C379.915 19.7216 382.755 20.6271 384.564 22.4381C386.372 24.2491 387.277 27.095 387.277 30.9757V127.024C387.277 130.905 386.372 133.751 384.564 135.562C382.755 137.373 379.915 138.278 376.043 138.278Z" fill="white"/>
<path d="M330.857 9.104H329.329V5.152H330.857V4.256H326.777V5.152H328.305V9.104H326.777V10H330.857V9.104ZM336.454 5.152V4.256H332.054V5.152H333.742V10H334.766V5.152H336.454ZM337.771 4.256V10H341.739V9.104H338.779V7.488H341.283V6.592H338.779V5.152H341.739V4.256H337.771ZM345.432 10L346.256 5.688V10H347.128V4.256H345.792L345.136 7.84L344.488 4.256H343.128V10H344V5.688L344.824 10H345.432ZM354.082 10H355.434C357.178 10 358.146 8.88 358.146 7.128C358.146 5.376 357.178 4.256 355.434 4.256H354.082V10ZM355.082 9.12V5.136H355.426C356.618 5.136 357.138 5.912 357.138 7.128C357.138 8.336 356.618 9.12 355.434 9.12H355.082ZM359.518 4.256V10H363.486V9.104H360.526V7.488H363.03V6.592H360.526V5.152H363.486V4.256H359.518ZM369.075 5.152V4.256H364.675V5.152H366.363V10H367.387V5.152H369.075ZM371.696 4.256L370.04 10H371.04L371.408 8.688H373.192L373.56 10H374.592L372.92 4.256H371.696ZM372.296 5.48L372.944 7.792H371.656L372.296 5.48ZM379.789 9.104H378.261V5.152H379.789V4.256H375.709V5.152H377.237V9.104H375.709V10H379.789V9.104ZM381.49 10H385.218V9.104H382.514V4.256H381.49V10Z" fill="#CED6E0"/>
<rect x="328" y="23" width="56" height="97" rx="6" fill="#445B78"/>
<path d="M363.499 75.2563C363.499 75.2556 363.498 75.255 363.498 75.2544C363.524 75.1652 363.551 75.0766 363.574 74.9852C364.564 71.0686 362.149 66.4381 358.062 64C359.853 66.4119 360.645 69.3333 359.941 71.8881C359.878 72.116 359.803 72.3347 359.719 72.5473C359.629 72.4882 359.515 72.4212 359.362 72.3373C359.362 72.3373 355.296 69.8437 350.89 65.4331C350.774 65.3174 353.24 68.9334 356.037 71.8698C354.719 71.1349 351.046 68.4798 348.72 66.3654C349.006 66.8387 349.346 67.2945 349.719 67.7333C351.661 70.1799 354.194 73.1987 357.228 75.5167C355.096 76.8127 352.084 76.9135 349.085 75.5181C348.343 75.1727 347.646 74.756 347 74.2825C348.27 76.2999 350.225 78.0404 352.605 79.0565C355.443 80.2681 358.265 80.186 360.367 79.0764L360.365 79.0788C360.375 79.0727 360.387 79.0662 360.397 79.0601C360.483 79.014 360.569 78.967 360.653 78.9174C361.663 78.3967 363.658 77.8684 364.728 79.9379C364.991 80.4444 365.548 77.7603 363.499 75.2563Z" fill="white"/>
<circle cx="336" cy="128" r="4" fill="white"/>
<circle opacity="0.5" cx="356" cy="128" r="4" fill="white"/>
<circle opacity="0.5" cx="376" cy="128" r="4" fill="white"/>
<path d="M504.489 143C509.511 143 513.351 141.663 516.011 138.99C518.67 136.316 520 132.436 520 127.348V30.5877C520 25.5427 518.67 21.6835 516.011 19.0101C513.351 16.3367 509.511 15 504.489 15H463.574C458.511 15 454.649 16.3367 451.989 19.0101C449.33 21.6835 448 25.5427 448 30.5877V127.348C448 132.436 449.33 136.316 451.989 138.99C454.649 141.663 458.511 143 463.574 143H504.489ZM504.043 138.278H463.957C460.085 138.278 457.245 137.373 455.436 135.562C453.628 133.751 452.723 130.905 452.723 127.024V30.9757C452.723 27.095 453.628 24.2491 455.436 22.4381C457.245 20.6271 460.085 19.7216 463.957 19.7216H466L502 19.7237L504.043 19.7216C507.915 19.7216 510.755 20.6271 512.564 22.4381C514.372 24.2491 515.277 27.095 515.277 30.9757V127.024C515.277 130.905 514.372 133.751 512.564 135.562C510.755 137.373 507.915 138.278 504.043 138.278Z" fill="white"/>
<path d="M463.65 4.256V6.592H461.858V4.256H460.834V10H461.858V7.488H463.65V10H464.674V4.256H463.65ZM466.271 4.256V10H470.239V9.104H467.279V7.488H469.783V6.592H467.279V5.152H470.239V4.256H466.271ZM471.932 10H475.66V9.104H472.956V4.256H471.932V10ZM478.169 7.776H479.265C480.545 7.776 481.345 7.16 481.345 6.016C481.345 4.856 480.545 4.256 479.265 4.256H477.145V10H478.169V7.776ZM478.169 6.896V5.136H479.209C479.945 5.136 480.337 5.448 480.337 6.016C480.337 6.576 479.945 6.896 479.209 6.896H478.169ZM489.042 7.776H490.138C491.418 7.776 492.218 7.16 492.218 6.016C492.218 4.856 491.418 4.256 490.138 4.256H488.018V10H489.042V7.776ZM489.042 6.896V5.136H490.082C490.818 5.136 491.21 5.448 491.21 6.016C491.21 6.576 490.818 6.896 490.082 6.896H489.042ZM494.759 4.256L493.103 10H494.103L494.471 8.688H496.255L496.623 10H497.655L495.983 4.256H494.759ZM495.359 5.48L496.007 7.792H494.719L495.359 5.48ZM502.052 10H502.884V6.904H500.804V7.8H501.948C501.932 8.616 501.516 9.176 500.9 9.176C500.164 9.176 499.684 8.376 499.684 7.136C499.684 5.896 500.196 5.072 500.916 5.072C501.428 5.072 501.78 5.464 501.908 6.144L502.836 5.816C502.588 4.808 501.956 4.168 500.908 4.168C499.62 4.168 498.668 5.408 498.668 7.152C498.668 8.888 499.572 10.088 500.804 10.088C501.428 10.088 501.86 9.792 502.052 9.408V10ZM504.329 4.256V10H508.297V9.104H505.337V7.488H507.841V6.592H505.337V5.152H508.297V4.256H504.329Z" fill="#CED6E0"/>
<rect x="456" y="23" width="56" height="97" rx="6" fill="#1B6DFF"/>
<path opacity="0.3" d="M475.25 67.2887C475.25 67.2887 477.942 63.9233 484 63.9233C490.057 63.9233 492.75 67.2887 492.75 67.2887V76.7116C492.75 76.7116 490.057 80.0769 484 80.0769C477.942 80.0769 475.25 76.7116 475.25 76.7116V67.2887Z" fill="white"/>
<path opacity="0.7" fill-rule="evenodd" clip-rule="evenodd" d="M492.077 77.3845C491.705 77.3845 491.404 77.0832 491.404 76.7115L491.404 67.2886C491.404 66.9168 491.705 66.6155 492.077 66.6155C492.448 66.6155 492.75 66.9168 492.75 67.2886L492.75 76.7115C492.75 77.0832 492.448 77.3845 492.077 77.3845Z" fill="url(#paint4_linear)"/>
<path opacity="0.7" fill-rule="evenodd" clip-rule="evenodd" d="M475.923 66.6157C475.551 66.6157 475.25 66.9171 475.25 67.2888L475.25 76.7117C475.25 77.0834 475.551 77.3847 475.923 77.3847C476.295 77.3847 476.596 77.0834 476.596 76.7117L476.596 67.2888C476.596 66.9171 476.295 66.6157 475.923 66.6157Z" fill="url(#paint5_linear)"/>
<path fill-rule="evenodd" clip-rule="evenodd" d="M477.03 66.4582C476.706 66.7782 476.596 67.0584 476.596 67.2886C476.596 67.5188 476.706 67.799 477.03 68.1191C477.358 68.4415 477.866 68.7628 478.548 69.047C479.909 69.6142 481.836 69.9809 484 69.9809C486.164 69.9809 488.091 69.6142 489.452 69.047C490.135 68.7628 490.643 68.4415 490.97 68.1191C491.295 67.799 491.404 67.5188 491.404 67.2886C491.404 67.0584 491.295 66.7782 490.97 66.4582C490.643 66.1358 490.135 65.8145 489.452 65.5303C488.091 64.9631 486.164 64.5964 484 64.5964C481.836 64.5964 479.909 64.9631 478.548 65.5303C477.866 65.8145 477.358 66.1358 477.03 66.4582ZM478.03 64.2877C479.592 63.6369 481.703 63.2502 484 63.2502C486.297 63.2502 488.408 63.6369 489.97 64.2877C490.75 64.6125 491.424 65.0163 491.915 65.4992C492.407 65.9844 492.75 66.5895 492.75 67.2886C492.75 67.9877 492.407 68.5928 491.915 69.078C491.424 69.5609 490.75 69.9648 489.97 70.2896C488.408 70.9404 486.297 71.327 484 71.327C481.703 71.327 479.592 70.9404 478.03 70.2896C477.251 69.9648 476.576 69.5609 476.086 69.078C475.593 68.5928 475.25 67.9877 475.25 67.2886C475.25 66.5895 475.593 65.9844 476.086 65.4992C476.576 65.0163 477.251 64.6125 478.03 64.2877Z" fill="white"/>
<path fill-rule="evenodd" clip-rule="evenodd" d="M477.03 75.881C476.705 76.2011 476.596 76.4813 476.596 76.7115C476.596 76.9417 476.705 77.2219 477.03 77.5419C477.357 77.8643 477.866 78.1856 478.548 78.4698C479.909 79.037 481.836 79.4037 484 79.4037C486.164 79.4037 488.091 79.037 489.452 78.4698C490.134 78.1856 490.642 77.8643 490.97 77.5419C491.295 77.2219 491.404 76.9417 491.404 76.7115C491.404 76.4813 491.295 76.2011 490.97 75.881C490.642 75.5587 490.134 75.2373 489.452 74.9531C488.091 74.3859 486.164 74.0192 484 74.0192C481.836 74.0192 479.909 74.3859 478.548 74.9531C477.866 75.2373 477.357 75.5587 477.03 75.881ZM478.03 73.7105C479.592 73.0598 481.703 72.6731 484 72.6731C486.297 72.6731 488.408 73.0598 489.97 73.7105C490.749 74.0353 491.424 74.4392 491.914 74.9221C492.407 75.4073 492.75 76.0124 492.75 76.7115C492.75 77.4106 492.407 78.0157 491.914 78.5009C491.424 78.9838 490.749 79.3876 489.97 79.7124C488.408 80.3632 486.297 80.7499 484 80.7499C481.703 80.7499 479.592 80.3632 478.03 79.7124C477.25 79.3876 476.576 78.9838 476.086 78.5009C475.593 78.0157 475.25 77.4106 475.25 76.7115C475.25 76.0124 475.593 75.4073 476.086 74.9221C476.576 74.4392 477.25 74.0353 478.03 73.7105Z" fill="white"/>
<circle cx="464" cy="128" r="4" fill="white"/>
<circle opacity="0.5" cx="484" cy="128" r="4" fill="white"/>
<circle opacity="0.5" cx="504" cy="128" r="4" fill="white"/>
<defs>
<linearGradient id="paint0_linear" x1="236.077" y1="403.289" x2="236.077" y2="412.711" gradientUnits="userSpaceOnUse">
<stop stop-color="white"/>
<stop offset="1" stop-color="white" stop-opacity="0"/>
</linearGradient>
<linearGradient id="paint1_linear" x1="219.923" y1="412.712" x2="219.923" y2="403.289" gradientUnits="userSpaceOnUse">
<stop stop-color="white"/>
<stop offset="1" stop-color="white" stop-opacity="0"/>
</linearGradient>
<linearGradient id="paint2_linear" x1="364.077" y1="242.289" x2="364.077" y2="251.711" gradientUnits="userSpaceOnUse">
<stop stop-color="white"/>
<stop offset="1" stop-color="white" stop-opacity="0"/>
</linearGradient>
<linearGradient id="paint3_linear" x1="347.923" y1="251.712" x2="347.923" y2="242.289" gradientUnits="userSpaceOnUse">
<stop stop-color="white"/>
<stop offset="1" stop-color="white" stop-opacity="0"/>
</linearGradient>
<linearGradient id="paint4_linear" x1="492.077" y1="67.2886" x2="492.077" y2="76.7115" gradientUnits="userSpaceOnUse">
<stop stop-color="white"/>
<stop offset="1" stop-color="white" stop-opacity="0"/>
</linearGradient>
<linearGradient id="paint5_linear" x1="475.923" y1="76.7117" x2="475.923" y2="67.2888" gradientUnits="userSpaceOnUse">
<stop stop-color="white"/>
<stop offset="1" stop-color="white" stop-opacity="0"/>
</linearGradient>
</defs>
</svg>
