<svg width="24" height="24" viewBox="0 0 256 256" fill="none" xmlns="http://www.w3.org/2000/svg">
<path d="M256 128C256 184 246.4 216.8 223.2 235.2C203.2 251.2 172 256 128 256C77.6 256 44.8 249.6 24.8 227.2C7.2 208 0 176.8 0 128C0 76 8 44 28 25.6C48 5.6 80 0 128 0C175.2 0 207.2 5.6 227.2 24.8C248 43.2 256 75.2 256 128Z" fill="#0038C9"/>
<path opacity="0.3" d="M58.0008 90.309C58.0008 90.309 79.5388 63.3865 127.999 63.3865C176.46 63.3865 197.998 90.309 197.998 90.309V165.692C197.998 165.692 176.46 192.615 127.999 192.615C79.5388 192.615 58.0008 165.692 58.0008 165.692V90.309Z" fill="white"/>
<path opacity="0.7" fill-rule="evenodd" clip-rule="evenodd" d="M192.614 171.077C189.64 171.077 187.229 168.666 187.229 165.692L187.229 90.309C187.229 87.3352 189.64 84.9245 192.614 84.9245C195.587 84.9245 197.998 87.3352 197.998 90.309L197.998 165.692C197.998 168.666 195.587 171.077 192.614 171.077Z" fill="url(#paint0_linear)"/>
<path opacity="0.7" fill-rule="evenodd" clip-rule="evenodd" d="M63.3853 84.9258C60.4115 84.9258 58.0008 87.3365 58.0008 90.3103L58.0008 165.693C58.0008 168.667 60.4115 171.078 63.3853 171.078C66.3591 171.078 68.7698 168.667 68.7698 165.693L68.7698 90.3103C68.7698 87.3365 66.3591 84.9258 63.3853 84.9258Z" fill="url(#paint1_linear)"/>
<path fill-rule="evenodd" clip-rule="evenodd" d="M72.2438 83.665C69.6447 86.2254 68.7718 88.4671 68.7718 90.3086C68.7718 92.1501 69.6447 94.3919 72.2438 96.9522C74.8618 99.5313 78.9263 102.102 84.3833 104.375C95.2738 108.913 110.692 111.847 128.001 111.847C145.311 111.847 160.729 108.913 171.62 104.375C177.077 102.102 181.141 99.5313 183.759 96.9522C186.358 94.3919 187.231 92.1501 187.231 90.3086C187.231 88.4671 186.358 86.2254 183.759 83.665C181.141 81.086 177.077 78.5156 171.62 76.2418C160.729 71.7041 145.311 68.7706 128.001 68.7706C110.692 68.7706 95.2738 71.7041 84.3833 76.2418C78.9263 78.5156 74.8618 81.086 72.2438 83.665ZM80.2414 66.3012C92.7367 61.0948 109.626 58.0016 128.001 58.0016C146.377 58.0016 163.266 61.0948 175.762 66.3012C181.997 68.8995 187.395 72.1304 191.317 75.9933C195.257 79.8749 198 84.7157 198 90.3086C198 95.9016 195.257 100.742 191.317 104.624C187.395 108.487 181.997 111.718 175.762 114.316C163.266 119.522 146.377 122.616 128.001 122.616C109.626 122.616 92.7367 119.522 80.2414 114.316C74.0055 111.718 68.6075 108.487 64.6863 104.624C60.746 100.742 58.0028 95.9016 58.0028 90.3086C58.0028 84.7157 60.746 79.8749 64.6863 75.9933C68.6075 72.1304 74.0055 68.8995 80.2414 66.3012Z" fill="white"/>
<path fill-rule="evenodd" clip-rule="evenodd" d="M72.2418 159.047C69.6427 161.608 68.7698 163.849 68.7698 165.691C68.7698 167.532 69.6427 169.774 72.2418 172.334C74.8598 174.914 78.9243 177.484 84.3813 179.758C95.2718 184.295 110.69 187.229 127.999 187.229C145.309 187.229 160.727 184.295 171.618 179.758C177.075 177.484 181.139 174.914 183.757 172.334C186.356 169.774 187.229 167.532 187.229 165.691C187.229 163.849 186.356 161.608 183.757 159.047C181.139 156.468 177.075 153.898 171.618 151.624C160.727 147.086 145.309 144.153 127.999 144.153C110.69 144.153 95.2718 147.086 84.3813 151.624C78.9243 153.898 74.8598 156.468 72.2418 159.047ZM80.2394 141.683C92.7347 136.477 109.624 133.384 127.999 133.384C146.375 133.384 163.264 136.477 175.76 141.683C181.995 144.282 187.393 147.513 191.315 151.376C195.255 155.257 197.998 160.098 197.998 165.691C197.998 171.284 195.255 176.125 191.315 180.006C187.393 183.869 181.995 187.1 175.76 189.698C163.264 194.905 146.375 197.998 127.999 197.998C109.624 197.998 92.7347 194.905 80.2394 189.698C74.0035 187.1 68.6055 183.869 64.6842 180.006C60.744 176.125 58.0008 171.284 58.0008 165.691C58.0008 160.098 60.744 155.257 64.6842 151.376C68.6055 147.513 74.0035 144.282 80.2394 141.683Z" fill="white"/>
<defs>
<linearGradient id="paint0_linear" x1="192.614" y1="90.309" x2="192.614" y2="165.692" gradientUnits="userSpaceOnUse">
<stop stop-color="white"/>
<stop offset="1" stop-color="white" stop-opacity="0"/>
</linearGradient>
<linearGradient id="paint1_linear" x1="63.3853" y1="165.693" x2="63.3853" y2="90.3103" gradientUnits="userSpaceOnUse">
<stop stop-color="white"/>
<stop offset="1" stop-color="white" stop-opacity="0"/>
</linearGradient>
</defs>
</svg>
